{"title":"Plush.2013.480p.AC-3.x264-hotpena","uid":9510332,"size":667909256,"categoryP":"video","categoryS":"movies","magnet":"?xt=urn:btih:125d697f9605628678e5d2f37d01280b87fa4bb8&amp;dn=Plush.2013.480p.AC-3.x264-hotpena&amp;tr=udp%3A%2F%2Ftracker.openbittorrent.com%3A80&amp;tr=udp%3A%2F%2Fopen.demonii.com%3A1337&amp;tr=udp%3A%2F%2Ftracker.coppersurfer.tk%3A6969&amp;tr=udp%3A%2F%2Fexodus.desync.com%3A6969","seeders":1,"leechers":0,"uploader":"hotpena","files":-1,"time":1390351824,"description":"PLOT\n\nA young singer/songwriter, despite being married, becomes involved with her new guitarist, who she soon discovers has a dark past and may be a danger to her and those close to her.\n\n4.6/10 (281 votes)\nLanguage: English (USA)\nDirector: Catherine Hardwicke\nWriter: Catherine Hardwicke, Arty Nelson\n\nACTORS\nEmily Browning, Cam Gigandet, Xavier Samuel, Thomas Dekker, Dawn Olivieri, Frances Fisher, Kennedy Waite, Brandon Jay McLaren, Casey LaBow, James Kyson, Marlene Forte, Kimiko Gelman, Jesse Lewis IV, Indira G. Wilson, Kaitlin Thomas\n\n\n\nIMDB &lt;a href=&quot;\nhttp://www.imdb.com/title/tt2226519&quot; rel=&quot;nofollow&quot; target=&quot;_NEW&quot;&gt;\nhttp://www.imdb.com/title/tt2226519&lt;/a&gt;\n\n\n\nSCREEN &lt;a href=&quot;\nhttp://www.imgclik.com/viewer.php?file=40366759867060581788.jpeg&quot; rel=&quot;nofollow&quot; target=&quot;_NEW&quot;&gt;\nhttp://www.imgclik.com/viewer.php?file=40366759867060581788.jpeg&lt;/a&gt;\n\n\n\nEncoder\t : hotpena\n\n\n\n\n\nComplete name : plush.2013\nFormat : Matroska\nFormat version : Version 4 / Version 2\nFile size : 637 MiB\nDuration : 1h 39mn\nOverall bit rate : 896 Kbps\nVideo\nID : 1\nFormat : AVC\nFormat/Info : Advanced Video Codec\nFormat settings, CABAC : Yes\nFormat settings, ReFrames : 2 frames\nCodec ID : V_MPEG4/ISO/AVC\nDuration : 1h 39mn\nBit rate : 768 Kbps\nWidth : 720 pixels\nHeight : 480 pixels\nDisplay aspect ratio : 1.85:1\nFrame rate mode : Constant\nFrame rate : 23.976 fps\nStandard : NTSC\nColor space : YUV\nChroma subsampling : 4:2:0\nBit depth : 8 bits\nScan type : Progressive\nBits/(Pixel*Frame) : 0.093\nStream size : 533 MiB (84%)\nWriting library : x264 core 140 r2377kMod 1ca7bb9\n\nDefault : Yes\nForced : No\n\nAudio\nID : 2\nFormat : AC-3\nFormat/Info : Audio Coding 3\nMode extension : CM (complete main)\nFormat settings, Endianness : Big\nCodec ID : A_AC3\nDuration : 1h 39mn\nBit rate mode : Constant\nBit rate : 128 Kbps\nChannel count : 2 channels\nChannel positions : Front: L R\nSampling rate : 48.0 KHz\nBit depth : 16 bits\nCompression mode : Lossy\nStream size : 91.0 MiB (14%)\nDefault : Yes\nForced : No","torrent":{"xt":"urn:btih:125d697f9605628678e5d2f37d01280b87fa4bb8","amp;dn":"Plush.2013.480p.AC-3.x264-hotpena","amp;tr":["udp%3A%2F%2Ftracker.openbittorrent.com%3A80","udp%3A%2F%2Fopen.demonii.com%3A1337","udp%3A%2F%2Ftracker.coppersurfer.tk%3A6969","udp%3A%2F%2Fexodus.desync.com%3A6969"],"infoHash":"125d697f9605628678e5d2f37d01280b87fa4bb8","infoHashBuffer":{"type":"Buffer","data":[18,93,105,127,150,5,98,134,120,229,210,243,125,1,40,11,135,250,75,184]},"announce":[],"urlList":[]}}